<?xml version="1.0" encoding="utf-8"?>
<!-- Generator: Adobe Illustrator 17.0.2, SVG Export Plug-In . SVG Version: 6.00 Build 0)  -->
<!DOCTYPE svg PUBLIC "-//W3C//DTD SVG 1.1//EN" "http://www.w3.org/Graphics/SVG/1.1/DTD/svg11.dtd">
<svg version="1.1" id="Layer_1" xmlns="http://www.w3.org/2000/svg" xmlns:xlink="http://www.w3.org/1999/xlink" x="0px" y="0px"
	 width="123.471px" height="180.398px" viewBox="0 0 123.471 180.398" enable-background="new 0 0 123.471 180.398"
	 xml:space="preserve">
<g>
	<g>
		<path fill="#FFFFFF" d="M25.484,99.962c0,0,3.612,15.298,10.229,16.435s-15.106,19.947-30.692,0.305S17.91,91.63,18.982,91.946
			C20.055,92.262,25.484,99.962,25.484,99.962z"/>
		<path fill="#7392F4" d="M25.484,99.962c0,0,3.612,15.298,10.229,16.435s-15.106,19.947-30.692,0.305S17.91,91.63,18.982,91.946
			C20.055,92.262,25.484,99.962,25.484,99.962z"/>
	</g>
	<g>
		<path fill="#505454" d="M15.744,122.43c0,0,17.409,6.628,22.771,0.465c5.362-6.163,10.001,29.416-19.365,32.384
			c-29.366,2.968-16.481-30.581-15.482-31.491S15.744,122.43,15.744,122.43z"/>
		<path fill="none" d="M15.744,122.43c0,0,17.409,6.628,22.771,0.465c5.362-6.163,10.001,29.416-19.365,32.384
			c-29.366,2.968-16.481-30.581-15.482-31.491S15.744,122.43,15.744,122.43z"/>
	</g>
	<g>
		<path fill="#9B304B" d="M31.671,147.938c0,0,17.694-13.738,15.05-23.555c-2.645-9.817,35.433,9.542,19.544,42.348
			s-40.734-3.542-40.991-5.208C25.017,159.857,31.671,147.938,31.671,147.938z"/>
		<path fill="none" d="M31.671,147.938c0,0,17.694-13.738,15.05-23.555c-2.645-9.817,35.433,9.542,19.544,42.348
			s-40.734-3.542-40.991-5.208C25.017,159.857,31.671,147.938,31.671,147.938z"/>
	</g>
	<g>
		<path fill="#BACA00" d="M67.044,148.607c0,0-2.217-27.902-13.598-31.813s32.118-30.649,54.307,8.341s-29.595,40.292-31.404,39.427
			C74.54,163.697,67.044,148.607,67.044,148.607z"/>
		<path fill="none" d="M67.044,148.607c0,0-2.217-27.902-13.598-31.813s32.118-30.649,54.307,8.341s-29.595,40.292-31.404,39.427
			C74.54,163.697,67.044,148.607,67.044,148.607z"/>
	</g>
	<g>
		<path fill="#E6C700" d="M90.369,111.979c0,0-28.951-16.672-40.102-7.403s-9.661-54.536,43.027-51.253
			c52.689,3.283,20.792,58.457,18.779,59.764C110.061,114.394,90.369,111.979,90.369,111.979z"/>
		<path fill="none" d="M90.369,111.979c0,0-28.951-16.672-40.102-7.403s-9.661-54.536,43.027-51.253
			c52.689,3.283,20.792,58.457,18.779,59.764C110.061,114.394,90.369,111.979,90.369,111.979z"/>
	</g>
	<g>
		<path fill="#FFFFFF" d="M69.175,62.59c0,0-35,19-33,37s-60-27-23-80s71,18,71,21S69.175,62.59,69.175,62.59z"/>
		<path fill="#0B769C" d="M69.175,62.59c0,0-35,19-33,37s-60-27-23-80s71,18,71,21S69.175,62.59,69.175,62.59z"/>
	</g>
</g>
</svg>
