<?xml version="1.0" encoding="utf-8"?>
<!-- Generator: Adobe Illustrator 17.0.0, SVG Export Plug-In . SVG Version: 6.00 Build 0)  -->
<!DOCTYPE svg PUBLIC "-//W3C//DTD SVG 1.1//EN" "http://www.w3.org/Graphics/SVG/1.1/DTD/svg11.dtd">
<svg version="1.1" id="Layer_1" xmlns="http://www.w3.org/2000/svg" xmlns:xlink="http://www.w3.org/1999/xlink" x="0px" y="0px"
	 width="80.5px" height="40px" viewBox="0 0 80.5 40" enable-background="new 0 0 80.5 40" xml:space="preserve">
<path fill="#FFFFFF" d="M30.188,27c0,0.828-0.672,1.5-1.5,1.5H11.312c-0.828,0-1.5-0.672-1.5-1.5l0,0c0-0.828,0.672-1.5,1.5-1.5
	h17.375C29.516,25.5,30.188,26.172,30.188,27L30.188,27z"/>
<path d="M67.193,11.749c0.589,0.582,0.595,1.532,0.013,2.121L54.995,26.23c-0.582,0.589-1.532,0.595-2.121,0.013l0,0
	c-0.589-0.582-0.595-1.532-0.013-2.121l12.211-12.36C65.654,11.172,66.604,11.166,67.193,11.749L67.193,11.749z"/>
<path d="M52.874,11.758c-0.589,0.582-0.595,1.532-0.013,2.121l12.211,12.36c0.582,0.589,1.532,0.595,2.121,0.013l0,0
	c0.589-0.582,0.595-1.532,0.013-2.121l-12.211-12.36C54.413,11.181,53.463,11.175,52.874,11.758L52.874,11.758z"/>
<path fill="#FFFFFF" d="M30.188,20c0,0.828-0.672,1.5-1.5,1.5H11.312c-0.828,0-1.5-0.672-1.5-1.5l0,0c0-0.828,0.672-1.5,1.5-1.5
	h17.375C29.516,18.5,30.188,19.172,30.188,20L30.188,20z"/>
<path fill="#FFFFFF" d="M30.188,13c0,0.828-0.672,1.5-1.5,1.5H11.312c-0.828,0-1.5-0.672-1.5-1.5l0,0c0-0.828,0.672-1.5,1.5-1.5
	h17.375C29.516,11.5,30.188,12.172,30.188,13L30.188,13z"/>
</svg>
